<svg width="256" height="256" viewBox="0 0 256 256" fill="none" xmlns="http://www.w3.org/2000/svg">
  <rect width="256" height="256" rx="68" fill="url(#bg)"/>
  <rect x="18" y="18" width="220" height="220" rx="56" fill="url(#glass)" fill-opacity="0.35"/>

  <circle cx="128" cy="128" r="58" stroke="white" stroke-opacity="0.94" stroke-width="11"/>
  <path
    d="M128 70C156 76 178 97 187 125"
    stroke="white"
    stroke-opacity="0.78"
    stroke-width="8"
    stroke-linecap="round"
  />
  <path
    d="M184 143C174 169 153 186 128 188"
    stroke="white"
    stroke-opacity="0.78"
    stroke-width="8"
    stroke-linecap="round"
  />
  <path
    d="M111 185C84 179 63 159 55 132"
    stroke="white"
    stroke-opacity="0.78"
    stroke-width="8"
    stroke-linecap="round"
  />

  <circle cx="128" cy="70" r="12" fill="white"/>
  <circle cx="184" cy="143" r="12" fill="white"/>
  <circle cx="111" cy="185" r="12" fill="white"/>

  <circle cx="128" cy="128" r="22" fill="white" fill-opacity="0.14"/>
  <circle cx="128" cy="128" r="12" fill="white"/>

  <defs>
    <linearGradient id="bg" x1="28" y1="18" x2="228" y2="238" gradientUnits="userSpaceOnUse">
      <stop stop-color="#E8F0FF"/>
      <stop offset="0.48" stop-color="#BFD2FF"/>
      <stop offset="1" stop-color="#86A8FF"/>
    </linearGradient>
    <linearGradient id="glass" x1="32" y1="20" x2="204" y2="216" gradientUnits="userSpaceOnUse">
      <stop stop-color="white" stop-opacity="0.7"/>
      <stop offset="1" stop-color="white" stop-opacity="0"/>
    </linearGradient>
  </defs>
</svg>
